<mxfile host="app.diagrams.net" modified="2023-09-08T04:57:53.942Z" agent="Mozilla/5.0 (Windows NT 10.0; Win64; x64) AppleWebKit/537.36 (KHTML, like Gecko) Chrome/116.0.0.0 Safari/537.36" version="21.7.2" etag="p63fMPC_epZHwD3AD1eN" type="github">
  <diagram name="페이지-1" id="PBw5DHDlA6lM6pFcwrjj">
    <mxGraphModel>
      <root>
        <mxCell id="0" />
        <mxCell id="1" parent="0" />
      </root>
    </mxGraphModel>
  </diagram>
</mxfile>
